<svg width="20" height="19" viewBox="0 0 20 19" fill="none" xmlns="http://www.w3.org/2000/svg">
<path d="M19.2147 1.89441L19.4837 1.87657C19.4765 1.76842 19.4053 1.67507 19.3029 1.63962C19.2004 1.60417 19.0867 1.63351 19.0142 1.71409L19.2147 1.89441ZM18.2024 5.6933C18.2024 5.54439 18.0817 5.42368 17.9328 5.42368C17.7839 5.42368 17.6632 5.54439 17.6632 5.6933H18.2024ZM10.2552 6.83736V7.10697H10.5249V6.83736H10.2552ZM2.54997 1.89441L2.80246 1.79987C2.76484 1.69939 2.67123 1.63078 2.56409 1.62516C2.45694 1.61955 2.35666 1.67799 2.30874 1.77398L2.54997 1.89441ZM7.55909 13.5777L7.74989 13.7682C7.81587 13.7022 7.84296 13.6066 7.82149 13.5158C7.80002 13.4249 7.73305 13.3516 7.64447 13.322L7.55909 13.5777ZM1.26807 16.0171V15.7475C1.14929 15.7475 1.04451 15.8252 1.01005 15.9389C0.975588 16.0526 1.01957 16.1754 1.11835 16.2413L1.26807 16.0171ZM16.9521 3.14412L16.7521 3.32494L16.8492 3.43238L16.9924 3.41069L16.9521 3.14412ZM18.9457 1.91225C19.0131 2.92956 18.9551 3.59551 18.7681 4.1226C18.5831 4.64405 18.2623 5.05692 17.7462 5.55139L18.1193 5.94073C18.6626 5.42015 19.051 4.93806 19.2763 4.30288C19.4997 3.67334 19.553 2.92099 19.4837 1.87657L18.9457 1.91225ZM18.2024 6.62872V5.74606H17.6632V6.62872H18.2024ZM18.2024 5.74606V5.6933H17.6632V5.74606H18.2024ZM9.98563 5.93864V6.83736H10.5249V5.93864H9.98563ZM14.1398 1.62479C11.8241 1.62479 9.98563 3.64749 9.98563 5.93864H10.5249C10.5249 3.9171 12.1494 2.16402 14.1398 2.16402V1.62479ZM17.6632 6.62872C17.6632 12.3793 12.8406 17.3524 7.10973 17.3524V17.8916C13.1489 17.8916 18.2024 12.6664 18.2024 6.62872H17.6632ZM2.29747 1.98895C2.96633 3.77532 5.49833 7.10697 10.2552 7.10697V6.56774C5.78247 6.56774 3.41551 3.43718 2.80246 1.79987L2.29747 1.98895ZM2.30874 1.77398C1.00144 4.39262 0.791796 6.91542 1.68113 9.04367C2.57046 11.1719 4.53677 12.853 7.47371 13.8335L7.64447 13.322C4.81286 12.3767 2.9927 10.7838 2.17866 8.83576C1.36462 6.88768 1.53469 4.53173 2.79119 2.01484L2.30874 1.77398ZM7.3683 13.3872C6.5521 14.2047 4.25747 15.7475 1.26807 15.7475V16.2867C4.43179 16.2867 6.85691 14.6626 7.74989 13.7682L7.3683 13.3872ZM17.152 2.96329C16.4091 2.14165 15.3346 1.62479 14.1398 1.62479V2.16402C15.1757 2.16402 16.107 2.61148 16.7521 3.32494L17.152 2.96329ZM16.9924 3.41069C17.8803 3.27622 18.7558 2.80758 19.4151 2.07473L19.0142 1.71409C18.4352 2.35775 17.6713 2.76249 16.9117 2.87754L16.9924 3.41069ZM1.11835 16.2413C3.09958 17.5642 5.00487 17.8916 7.10973 17.8916V17.3524C5.07174 17.3524 3.28226 17.0378 1.41778 15.7929L1.11835 16.2413Z" fill="white"/>
</svg>
