<svg width="19" height="19" viewBox="0 0 19 19" fill="none" xmlns="http://www.w3.org/2000/svg">
<path d="M14.4366 5.03998H15.3353M4.10134 0.546387H14.886C16.8713 0.546387 18.4808 2.15587 18.4808 4.14126V14.9259C18.4808 16.9113 16.8713 18.5207 14.886 18.5207H4.10134C2.11595 18.5207 0.50647 16.9113 0.50647 14.9259V4.14126C0.50647 2.15587 2.11595 0.546387 4.10134 0.546387ZM9.49365 13.1284C7.50826 13.1284 5.89878 11.519 5.89878 9.53357C5.89878 7.54817 7.50826 5.93869 9.49365 5.93869C11.479 5.93869 13.0885 7.54817 13.0885 9.53357C13.0885 11.519 11.479 13.1284 9.49365 13.1284Z" stroke="white" stroke-width="0.539231"/>
</svg>
