<svg width="32" height="32" viewBox="0 0 32 32" fill="none" xmlns="http://www.w3.org/2000/svg">
<path fill-rule="evenodd" clip-rule="evenodd" d="M24.0697 21.6969C28.1775 16.4212 27.8064 8.78859 22.9566 3.93873C17.7049 -1.31291 9.19036 -1.31291 3.93873 3.93873C-1.31291 9.19036 -1.31291 17.7049 3.93873 22.9566C8.78859 27.8064 16.4212 28.1775 21.6969 24.0697C21.7197 24.0954 21.7434 24.1206 21.768 24.1452L28.8997 31.2769C29.5561 31.9333 30.6204 31.9333 31.2769 31.2769C31.9333 30.6204 31.9333 29.5561 31.2769 28.8997L24.1452 21.768C24.1206 21.7434 24.0954 21.7197 24.0697 21.6969ZM20.5793 6.31596C24.5181 10.2547 24.5181 16.6406 20.5793 20.5793C16.6406 24.5181 10.2547 24.5181 6.31596 20.5793C2.37723 16.6406 2.37723 10.2547 6.31596 6.31596C10.2547 2.37723 16.6406 2.37723 20.5793 6.31596Z" fill="#CC064C"/>
</svg>
